<svg width="162" height="92" viewBox="0 0 162 92" fill="none" xmlns="http://www.w3.org/2000/svg">
<path d="M0 12C0 5.37258 5.37258 0 12 0H115C121.627 0 127 5.37258 127 12C127 18.6274 121.627 24 115 24H12C5.37258 24 0 18.6274 0 12Z" fill="white"/>
<path d="M0 46C0 39.3726 5.37258 34 12 34H79C85.6274 34 91 39.3726 91 46C91 52.6274 85.6274 58 79 58H12C5.37258 58 0 52.6274 0 46Z" fill="white"/>
<path d="M0 80C0 73.3726 5.37258 68 12 68H150C156.627 68 162 73.3726 162 80C162 86.6274 156.627 92 150 92H12C5.37259 92 0 86.6274 0 80Z" fill="white"/>
</svg>
