<svg width="1474" height="1474" viewBox="0 0 1474 1474" fill="none" xmlns="http://www.w3.org/2000/svg">
<g filter="url(#filter0_d_9_2)">
<rect x="98" y="124" width="639" height="322.431" fill="#3B3636"/>
</g>
<line y1="-0.5" x2="281.601" y2="-0.5" transform="matrix(-0.00259037 0.999997 -0.999997 -0.00241273 243.89 124)" stroke="black"/>
<line x1="525.959" y1="124" x2="525.959" y2="405.599" stroke="black"/>
<path d="M127.908 261.983C208.877 261.983 245.791 401.375 305.165 401.375C423.336 401.375 383.702 164.128 515.976 164.128C626.853 164.128 645.819 401.375 696.88 401.375" stroke="#D9D9D9" stroke-width="2"/>
<ellipse cx="136.661" cy="262.687" rx="9.48288" ry="9.15196" fill="#D9D9D9"/>
<ellipse cx="520.353" cy="164.128" rx="9.48288" ry="9.15196" fill="#D9D9D9"/>
<g filter="url(#filter1_d_9_2)">
<rect x="1064" y="172" width="392.086" height="487" fill="#3B3636"/>
</g>
<path fill-rule="evenodd" clip-rule="evenodd" d="M1260.61 499.68C1334.24 499.68 1393.94 439.985 1393.94 366.348C1393.94 292.711 1334.24 233.016 1260.61 233.016C1186.97 233.016 1127.28 292.711 1127.28 366.348C1127.28 439.985 1186.97 499.68 1260.61 499.68ZM1260.61 422.845C1291.81 422.845 1317.1 397.55 1317.1 366.348C1317.1 335.146 1291.81 309.851 1260.61 309.851C1229.41 309.851 1204.11 335.146 1204.11 366.348C1204.11 397.55 1229.41 422.845 1260.61 422.845Z" fill="url(#paint0_angular_9_2)"/>
<circle cx="1217.11" cy="391.771" r="22.9234" fill="#B1B00B" stroke="white" stroke-width="5"/>
<rect x="1120.5" y="541.487" width="279.093" height="6.77958" fill="#D9D9D9"/>
<rect x="1120.5" y="597.984" width="279.093" height="6.77958" fill="#D9D9D9"/>
<rect x="1369.08" y="590.074" width="9.03944" height="22.5986" fill="#D9D9D9"/>
<rect x="1201.85" y="533.578" width="9.03944" height="22.5986" fill="#D9D9D9"/>
<g filter="url(#filter2_d_9_2)">
<rect x="33" y="693" width="350.448" height="446.913" fill="#3B3636"/>
</g>
<rect x="62.3057" y="774.812" width="290.615" height="47.6219" fill="#4E4B4B"/>
<path opacity="0.2" d="M203.199 865.453V951.44L175.218 923.459C174.161 922.403 172.728 921.809 171.234 921.809C169.74 921.809 168.307 922.403 167.25 923.459L149.174 941.535L114.197 906.552C113.673 906.028 113.052 905.612 112.368 905.328C111.684 905.045 110.95 904.899 110.21 904.899C109.469 904.899 108.736 905.045 108.051 905.328C107.367 905.612 106.746 906.028 106.222 906.552L67.9417 944.839V865.453C67.9417 863.958 68.5354 862.525 69.5923 861.468C70.6492 860.411 72.0827 859.817 73.5774 859.817H197.563C199.058 859.817 200.491 860.411 201.548 861.468C202.605 862.525 203.199 863.958 203.199 865.453Z" fill="black"/>
<path d="M197.563 854.182H73.5771C70.5877 854.182 67.7208 855.369 65.607 857.483C63.4932 859.597 62.3057 862.464 62.3057 865.453V966.896C62.3057 969.885 63.4932 972.752 65.607 974.866C67.7208 976.98 70.5877 978.168 73.5771 978.168H197.563C200.552 978.168 203.419 976.98 205.533 974.866C207.647 972.752 208.834 969.885 208.834 966.896V865.453C208.834 862.464 207.647 859.597 205.533 857.483C203.419 855.369 200.552 854.182 197.563 854.182ZM197.563 865.453V937.837L179.198 919.479C178.151 918.432 176.908 917.601 175.541 917.035C174.173 916.468 172.707 916.176 171.227 916.176C169.746 916.176 168.28 916.468 166.913 917.035C165.545 917.601 164.302 918.432 163.256 919.479L149.166 933.568L118.17 902.571C116.056 900.459 113.19 899.273 110.202 899.273C107.214 899.273 104.348 900.459 102.235 902.571L73.5771 931.229V865.453H197.563ZM73.5771 947.171L110.209 910.539L166.567 966.896H73.5771V947.171ZM197.563 966.896H182.509L157.148 941.535L171.237 927.446L197.563 953.779V966.896ZM146.841 896.45C146.841 894.778 147.337 893.143 148.266 891.753C149.195 890.363 150.515 889.279 152.06 888.639C153.605 888 155.304 887.832 156.944 888.158C158.584 888.485 160.09 889.29 161.273 890.472C162.455 891.654 163.26 893.161 163.586 894.8C163.912 896.44 163.745 898.14 163.105 899.685C162.465 901.229 161.382 902.55 159.992 903.478C158.601 904.407 156.967 904.903 155.295 904.903C153.053 904.903 150.903 904.013 149.317 902.427C147.732 900.842 146.841 898.692 146.841 896.45Z" fill="black"/>
<path opacity="0.2" d="M361.938 865.453V951.44L333.957 923.459C332.9 922.403 331.467 921.809 329.973 921.809C328.479 921.809 327.046 922.403 325.99 923.459L307.913 941.535L272.936 906.552C272.413 906.028 271.791 905.612 271.107 905.328C270.423 905.045 269.69 904.899 268.949 904.899C268.208 904.899 267.475 905.045 266.791 905.328C266.107 905.612 265.485 906.028 264.962 906.552L226.681 944.839V865.453C226.681 863.958 227.275 862.525 228.332 861.468C229.389 860.411 230.822 859.817 232.317 859.817H356.303C357.797 859.817 359.231 860.411 360.288 861.468C361.345 862.525 361.938 863.958 361.938 865.453Z" fill="black"/>
<path d="M356.302 854.182H232.317C229.327 854.182 226.46 855.369 224.346 857.483C222.233 859.597 221.045 862.464 221.045 865.453V966.896C221.045 969.885 222.233 972.752 224.346 974.866C226.46 976.98 229.327 978.168 232.317 978.168H356.302C359.292 978.168 362.159 976.98 364.273 974.866C366.386 972.752 367.574 969.885 367.574 966.896V865.453C367.574 862.464 366.386 859.597 364.273 857.483C362.159 855.369 359.292 854.182 356.302 854.182ZM356.302 865.453V937.837L337.937 919.479C336.89 918.432 335.648 917.601 334.28 917.035C332.912 916.468 331.446 916.176 329.966 916.176C328.486 916.176 327.02 916.468 325.652 917.035C324.284 917.601 323.042 918.432 321.995 919.479L307.906 933.568L276.909 902.571C274.796 900.459 271.93 899.273 268.942 899.273C265.954 899.273 263.088 900.459 260.974 902.571L232.317 931.229V865.453H356.302ZM232.317 947.171L268.949 910.539L325.306 966.896H232.317V947.171ZM356.302 966.896H341.248L315.887 941.535L329.977 927.446L356.302 953.779V966.896ZM305.581 896.45C305.581 894.778 306.077 893.143 307.006 891.753C307.935 890.363 309.255 889.279 310.8 888.639C312.344 888 314.044 887.832 315.684 888.158C317.324 888.485 318.83 889.29 320.012 890.472C321.194 891.654 322 893.161 322.326 894.8C322.652 896.44 322.485 898.14 321.845 899.685C321.205 901.229 320.121 902.55 318.731 903.478C317.341 904.407 315.707 904.903 314.035 904.903C311.793 904.903 309.642 904.013 308.057 902.427C306.472 900.842 305.581 898.692 305.581 896.45Z" fill="black"/>
<path opacity="0.2" d="M203.199 1003.43V1089.42L175.218 1061.44C174.161 1060.38 172.728 1059.79 171.234 1059.79C169.74 1059.79 168.307 1060.38 167.25 1061.44L149.174 1079.52L114.197 1044.53C113.673 1044.01 113.052 1043.59 112.368 1043.31C111.684 1043.03 110.95 1042.88 110.21 1042.88C109.469 1042.88 108.736 1043.03 108.051 1043.31C107.367 1043.59 106.746 1044.01 106.222 1044.53L67.9417 1082.82V1003.43C67.9417 1001.94 68.5354 1000.51 69.5923 999.449C70.6492 998.392 72.0827 997.799 73.5774 997.799H197.563C199.058 997.799 200.491 998.392 201.548 999.449C202.605 1000.51 203.199 1001.94 203.199 1003.43Z" fill="black"/>
<path d="M197.563 992.163H73.5771C70.5877 992.163 67.7208 993.35 65.607 995.464C63.4932 997.578 62.3057 1000.45 62.3057 1003.43V1104.88C62.3057 1107.87 63.4932 1110.73 65.607 1112.85C67.7208 1114.96 70.5877 1116.15 73.5771 1116.15H197.563C200.552 1116.15 203.419 1114.96 205.533 1112.85C207.647 1110.73 208.834 1107.87 208.834 1104.88V1003.43C208.834 1000.45 207.647 997.578 205.533 995.464C203.419 993.35 200.552 992.163 197.563 992.163ZM197.563 1003.43V1075.82L179.198 1057.46C178.151 1056.41 176.908 1055.58 175.541 1055.02C174.173 1054.45 172.707 1054.16 171.227 1054.16C169.746 1054.16 168.28 1054.45 166.913 1055.02C165.545 1055.58 164.302 1056.41 163.256 1057.46L149.166 1071.55L118.17 1040.55C116.056 1038.44 113.19 1037.25 110.202 1037.25C107.214 1037.25 104.348 1038.44 102.235 1040.55L73.5771 1069.21V1003.43H197.563ZM73.5771 1085.15L110.209 1048.52L166.567 1104.88H73.5771V1085.15ZM197.563 1104.88H182.509L157.148 1079.52L171.237 1065.43L197.563 1091.76V1104.88ZM146.841 1034.43C146.841 1032.76 147.337 1031.12 148.266 1029.73C149.195 1028.34 150.515 1027.26 152.06 1026.62C153.605 1025.98 155.304 1025.81 156.944 1026.14C158.584 1026.47 160.09 1027.27 161.273 1028.45C162.455 1029.64 163.26 1031.14 163.586 1032.78C163.912 1034.42 163.745 1036.12 163.105 1037.67C162.465 1039.21 161.382 1040.53 159.992 1041.46C158.601 1042.39 156.967 1042.88 155.295 1042.88C153.053 1042.88 150.903 1041.99 149.317 1040.41C147.732 1038.82 146.841 1036.67 146.841 1034.43Z" fill="black"/>
<path opacity="0.2" d="M361.938 1003.43V1089.42L333.957 1061.44C332.9 1060.38 331.467 1059.79 329.973 1059.79C328.479 1059.79 327.046 1060.38 325.99 1061.44L307.913 1079.52L272.936 1044.53C272.413 1044.01 271.791 1043.59 271.107 1043.31C270.423 1043.03 269.69 1042.88 268.949 1042.88C268.208 1042.88 267.475 1043.03 266.791 1043.31C266.107 1043.59 265.485 1044.01 264.962 1044.53L226.681 1082.82V1003.43C226.681 1001.94 227.275 1000.51 228.332 999.449C229.389 998.392 230.822 997.799 232.317 997.799H356.303C357.797 997.799 359.231 998.392 360.288 999.449C361.345 1000.51 361.938 1001.94 361.938 1003.43Z" fill="black"/>
<path d="M356.302 992.163H232.317C229.327 992.163 226.46 993.35 224.346 995.464C222.233 997.578 221.045 1000.45 221.045 1003.43V1104.88C221.045 1107.87 222.233 1110.73 224.346 1112.85C226.46 1114.96 229.327 1116.15 232.317 1116.15H356.302C359.292 1116.15 362.159 1114.96 364.273 1112.85C366.386 1110.73 367.574 1107.87 367.574 1104.88V1003.43C367.574 1000.45 366.386 997.578 364.273 995.464C362.159 993.35 359.292 992.163 356.302 992.163ZM356.302 1003.43V1075.82L337.937 1057.46C336.89 1056.41 335.648 1055.58 334.28 1055.02C332.912 1054.45 331.446 1054.16 329.966 1054.16C328.486 1054.16 327.02 1054.45 325.652 1055.02C324.284 1055.58 323.042 1056.41 321.995 1057.46L307.906 1071.55L276.909 1040.55C274.796 1038.44 271.93 1037.25 268.942 1037.25C265.954 1037.25 263.088 1038.44 260.974 1040.55L232.317 1069.21V1003.43H356.302ZM232.317 1085.15L268.949 1048.52L325.306 1104.88H232.317V1085.15ZM356.302 1104.88H341.248L315.887 1079.52L329.977 1065.43L356.302 1091.76V1104.88ZM305.581 1034.43C305.581 1032.76 306.077 1031.12 307.006 1029.73C307.935 1028.34 309.255 1027.26 310.8 1026.62C312.344 1025.98 314.044 1025.81 315.684 1026.14C317.324 1026.47 318.83 1027.27 320.012 1028.45C321.194 1029.64 322 1031.14 322.326 1032.78C322.652 1034.42 322.485 1036.12 321.845 1037.67C321.205 1039.21 320.121 1040.53 318.731 1041.46C317.341 1042.39 315.707 1042.88 314.035 1042.88C311.793 1042.88 309.642 1041.99 308.057 1040.41C306.472 1038.82 305.581 1036.67 305.581 1034.43Z" fill="black"/>
<path d="M73.6007 813.601L84.4987 802.703C83.8068 801.838 83.259 800.844 82.8554 799.719C82.4518 798.595 82.2499 797.398 82.2499 796.13C82.2499 792.987 83.3386 790.328 85.5159 788.152C87.6932 785.976 90.3526 784.887 93.494 784.886C96.6366 784.886 99.2959 785.974 101.472 788.152C103.648 790.329 104.737 792.988 104.738 796.13C104.738 799.272 103.649 801.932 101.472 804.11C99.2948 806.287 96.6354 807.375 93.494 807.374C92.2254 807.374 91.0289 807.172 89.9045 806.768C88.7801 806.365 87.7855 805.817 86.9205 805.125L76.0225 816.023L73.6007 813.601ZM85.7096 796.13C85.7096 798.292 86.4662 800.13 87.9792 801.645C89.4923 803.159 91.3305 803.915 93.494 803.914C95.6563 803.914 97.494 803.158 99.007 801.645C100.52 800.132 101.277 798.293 101.278 796.13C101.278 793.967 100.521 792.13 99.007 790.617C97.4928 789.104 95.6552 788.347 93.494 788.345C91.3317 788.345 89.4934 789.103 87.9792 790.617C86.465 792.131 85.7085 793.969 85.7096 796.13Z" fill="black"/>
<path d="M124.876 786.463H129.428L134.234 798.19H134.439L139.246 786.463H143.797V803.917H140.217V792.556H140.072L135.555 803.832H133.118L128.601 792.514H128.456V803.917H124.876V786.463ZM149.011 808.826C148.55 808.826 148.119 808.789 147.715 808.716C147.317 808.647 146.988 808.559 146.727 808.451L147.545 805.741C147.971 805.872 148.354 805.943 148.695 805.954C149.042 805.966 149.34 805.886 149.59 805.716C149.846 805.545 150.053 805.255 150.212 804.846L150.425 804.292L145.729 790.826H149.548L152.258 800.44H152.394L155.13 790.826H158.974L153.886 805.332C153.641 806.037 153.309 806.65 152.888 807.173C152.474 807.701 151.948 808.108 151.312 808.392C150.675 808.681 149.908 808.826 149.011 808.826ZM166.455 803.917V786.463H178.011V789.505H170.145V793.664H177.244V796.707H170.145V803.917H166.455ZM185.379 804.173C184.055 804.173 182.911 803.892 181.945 803.329C180.984 802.761 180.243 801.971 179.72 800.96C179.197 799.943 178.936 798.764 178.936 797.423C178.936 796.071 179.197 794.889 179.72 793.877C180.243 792.86 180.984 792.071 181.945 791.508C182.911 790.94 184.055 790.656 185.379 790.656C186.703 790.656 187.845 790.94 188.805 791.508C189.771 792.071 190.516 792.86 191.038 793.877C191.561 794.889 191.822 796.071 191.822 797.423C191.822 798.764 191.561 799.943 191.038 800.96C190.516 801.971 189.771 802.761 188.805 803.329C187.845 803.892 186.703 804.173 185.379 804.173ZM185.396 801.36C185.999 801.36 186.501 801.19 186.905 800.849C187.308 800.502 187.612 800.031 187.817 799.434C188.027 798.838 188.132 798.159 188.132 797.397C188.132 796.636 188.027 795.957 187.817 795.36C187.612 794.764 187.308 794.292 186.905 793.946C186.501 793.599 185.999 793.426 185.396 793.426C184.788 793.426 184.277 793.599 183.862 793.946C183.453 794.292 183.143 794.764 182.933 795.36C182.729 795.957 182.626 796.636 182.626 797.397C182.626 798.159 182.729 798.838 182.933 799.434C183.143 800.031 183.453 800.502 183.862 800.849C184.277 801.19 184.788 801.36 185.396 801.36ZM200.098 804.173C198.774 804.173 197.629 803.892 196.663 803.329C195.703 802.761 194.962 801.971 194.439 800.96C193.916 799.943 193.655 798.764 193.655 797.423C193.655 796.071 193.916 794.889 194.439 793.877C194.962 792.86 195.703 792.071 196.663 791.508C197.629 790.94 198.774 790.656 200.098 790.656C201.422 790.656 202.564 790.94 203.524 791.508C204.49 792.071 205.234 792.86 205.757 793.877C206.28 794.889 206.541 796.071 206.541 797.423C206.541 798.764 206.28 799.943 205.757 800.96C205.234 801.971 204.49 802.761 203.524 803.329C202.564 803.892 201.422 804.173 200.098 804.173ZM200.115 801.36C200.717 801.36 201.22 801.19 201.624 800.849C202.027 800.502 202.331 800.031 202.536 799.434C202.746 798.838 202.851 798.159 202.851 797.397C202.851 796.636 202.746 795.957 202.536 795.36C202.331 794.764 202.027 794.292 201.624 793.946C201.22 793.599 200.717 793.426 200.115 793.426C199.507 793.426 198.996 793.599 198.581 793.946C198.172 794.292 197.862 794.764 197.652 795.36C197.447 795.957 197.345 796.636 197.345 797.397C197.345 798.159 197.447 798.838 197.652 799.434C197.862 800.031 198.172 800.502 198.581 800.849C198.996 801.19 199.507 801.36 200.115 801.36ZM215.865 790.826V793.554H207.982V790.826H215.865ZM209.771 787.69H213.402V799.895C213.402 800.23 213.453 800.491 213.555 800.679C213.658 800.86 213.8 800.988 213.982 801.062C214.169 801.136 214.385 801.173 214.629 801.173C214.8 801.173 214.97 801.159 215.141 801.13C215.311 801.096 215.442 801.071 215.533 801.054L216.104 803.755C215.922 803.812 215.666 803.877 215.337 803.951C215.007 804.031 214.607 804.079 214.135 804.096C213.26 804.13 212.493 804.014 211.834 803.747C211.18 803.48 210.672 803.065 210.308 802.502C209.945 801.94 209.766 801.23 209.771 800.372V787.69ZM221.963 804.164C221.128 804.164 220.384 804.02 219.73 803.73C219.077 803.434 218.56 803 218.179 802.426C217.804 801.846 217.616 801.125 217.616 800.261C217.616 799.534 217.75 798.923 218.017 798.429C218.284 797.934 218.648 797.537 219.108 797.235C219.568 796.934 220.091 796.707 220.676 796.554C221.267 796.4 221.886 796.292 222.534 796.23C223.295 796.15 223.909 796.076 224.375 796.008C224.841 795.934 225.179 795.826 225.389 795.684C225.599 795.542 225.705 795.332 225.705 795.054V795.002C225.705 794.463 225.534 794.045 225.193 793.75C224.858 793.454 224.381 793.306 223.761 793.306C223.108 793.306 222.588 793.451 222.202 793.741C221.815 794.025 221.56 794.383 221.435 794.815L218.077 794.542C218.247 793.747 218.582 793.059 219.082 792.48C219.582 791.895 220.227 791.446 221.017 791.133C221.813 790.815 222.733 790.656 223.778 790.656C224.506 790.656 225.202 790.741 225.866 790.912C226.537 791.082 227.131 791.346 227.648 791.704C228.17 792.062 228.582 792.522 228.884 793.085C229.185 793.642 229.335 794.309 229.335 795.088V803.917H225.892V802.102H225.79C225.58 802.511 225.298 802.872 224.946 803.184C224.594 803.491 224.17 803.733 223.676 803.909C223.182 804.079 222.611 804.164 221.963 804.164ZM223.003 801.659C223.537 801.659 224.009 801.554 224.418 801.343C224.827 801.127 225.148 800.838 225.381 800.474C225.614 800.11 225.73 799.699 225.73 799.238V797.849C225.616 797.923 225.46 797.991 225.261 798.054C225.068 798.11 224.849 798.164 224.605 798.216C224.361 798.261 224.116 798.304 223.872 798.343C223.628 798.377 223.406 798.409 223.207 798.437C222.781 798.5 222.409 798.599 222.091 798.735C221.773 798.872 221.526 799.056 221.349 799.289C221.173 799.517 221.085 799.801 221.085 800.142C221.085 800.636 221.264 801.014 221.622 801.275C221.986 801.531 222.446 801.659 223.003 801.659ZM238.05 809.099C236.874 809.099 235.865 808.937 235.024 808.613C234.189 808.295 233.524 807.86 233.03 807.309C232.536 806.758 232.214 806.139 232.067 805.451L235.425 805C235.527 805.261 235.689 805.505 235.911 805.733C236.132 805.96 236.425 806.142 236.788 806.278C237.158 806.42 237.607 806.491 238.135 806.491C238.925 806.491 239.575 806.298 240.087 805.912C240.604 805.531 240.862 804.892 240.862 803.994V801.599H240.709C240.55 801.963 240.311 802.306 239.993 802.63C239.675 802.954 239.266 803.218 238.766 803.423C238.266 803.627 237.669 803.73 236.976 803.73C235.993 803.73 235.098 803.502 234.291 803.048C233.49 802.588 232.851 801.886 232.374 800.943C231.902 799.994 231.666 798.795 231.666 797.346C231.666 795.863 231.908 794.625 232.391 793.63C232.874 792.636 233.516 791.892 234.317 791.397C235.124 790.903 236.007 790.656 236.967 790.656C237.7 790.656 238.314 790.781 238.808 791.031C239.303 791.275 239.7 791.582 240.001 791.951C240.308 792.315 240.544 792.673 240.709 793.025H240.845V790.826H244.45V804.045C244.45 805.159 244.178 806.091 243.632 806.841C243.087 807.591 242.331 808.153 241.365 808.528C240.405 808.909 239.3 809.099 238.05 809.099ZM238.126 801.002C238.712 801.002 239.206 800.858 239.609 800.568C240.018 800.272 240.331 799.852 240.547 799.306C240.768 798.755 240.879 798.096 240.879 797.329C240.879 796.562 240.771 795.897 240.555 795.335C240.339 794.767 240.027 794.326 239.618 794.014C239.209 793.701 238.712 793.545 238.126 793.545C237.53 793.545 237.027 793.707 236.618 794.031C236.209 794.349 235.899 794.792 235.689 795.36C235.479 795.929 235.374 796.585 235.374 797.329C235.374 798.085 235.479 798.738 235.689 799.289C235.905 799.835 236.214 800.258 236.618 800.559C237.027 800.855 237.53 801.002 238.126 801.002ZM253.305 804.173C251.959 804.173 250.8 803.9 249.828 803.355C248.862 802.804 248.118 802.025 247.595 801.02C247.072 800.008 246.811 798.812 246.811 797.431C246.811 796.085 247.072 794.903 247.595 793.886C248.118 792.869 248.854 792.076 249.803 791.508C250.757 790.94 251.876 790.656 253.161 790.656C254.024 790.656 254.828 790.795 255.572 791.074C256.322 791.346 256.976 791.758 257.533 792.309C258.095 792.86 258.533 793.554 258.845 794.389C259.158 795.218 259.314 796.19 259.314 797.304V798.301H248.26V796.051H255.896C255.896 795.528 255.783 795.065 255.555 794.662C255.328 794.258 255.013 793.943 254.609 793.716C254.212 793.483 253.749 793.366 253.22 793.366C252.669 793.366 252.18 793.494 251.754 793.75C251.334 794 251.004 794.338 250.766 794.764C250.527 795.184 250.405 795.653 250.399 796.17V798.309C250.399 798.957 250.518 799.517 250.757 799.988C251.001 800.46 251.345 800.824 251.788 801.079C252.232 801.335 252.757 801.463 253.365 801.463C253.768 801.463 254.138 801.406 254.473 801.292C254.808 801.179 255.095 801.008 255.334 800.781C255.572 800.554 255.754 800.275 255.879 799.946L259.237 800.167C259.067 800.974 258.717 801.679 258.189 802.281C257.666 802.877 256.99 803.343 256.161 803.679C255.337 804.008 254.385 804.173 253.305 804.173Z" fill="white"/>
<path d="M129.551 712.678H137.136L145.148 732.223H145.489L153.5 712.678H161.085V741.769H155.119V722.834H154.878L147.349 741.627H143.287L135.759 722.763H135.517V741.769H129.551V712.678ZM166.153 741.769V712.678H185.755V717.749H172.303V724.681H184.746V729.752H172.303V736.698H185.812V741.769H166.153ZM200.957 741.769H190.645V712.678H201.043C203.969 712.678 206.488 713.26 208.599 714.425C210.711 715.58 212.335 717.242 213.472 719.411C214.617 721.579 215.19 724.174 215.19 727.195C215.19 730.225 214.617 732.829 213.472 735.007C212.335 737.185 210.702 738.857 208.571 740.021C206.45 741.186 203.912 741.769 200.957 741.769ZM196.795 736.499H200.702C202.52 736.499 204.049 736.177 205.29 735.533C206.54 734.879 207.477 733.871 208.102 732.507C208.737 731.134 209.054 729.363 209.054 727.195C209.054 725.045 208.737 723.288 208.102 721.925C207.477 720.561 206.544 719.557 205.304 718.913C204.063 718.27 202.534 717.948 200.716 717.948H196.795V736.499ZM225.897 712.678V741.769H219.746V712.678H225.897ZM235.972 741.769H229.381L239.423 712.678H247.349L257.378 741.769H250.787L243.5 719.325H243.273L235.972 741.769ZM235.56 730.334H251.128V735.135H235.56V730.334Z" fill="black"/>
<g filter="url(#filter3_d_9_2)">
<rect x="730.5" y="983.5" width="701" height="395" rx="17.5" stroke="#D9D9D9" shape-rendering="crispEdges"/>
<rect x="730" y="983" width="702" height="396" fill="#3B3636"/>
<rect x="954.5" y="1111.5" width="420" height="209" fill="#3B3636" stroke="#D9D9D9"/>
<rect x="1107" y="1187" width="142" height="46" fill="#D9D9D9"/>
<path d="M1159.43 1209.79V1208.27H1166.59V1209.79H1163.92V1217H1162.1V1209.79H1159.43ZM1167.77 1217V1208.27H1173.65V1209.79H1169.62V1211.87H1173.35V1213.39H1169.62V1215.48H1173.67V1217H1167.77ZM1176.85 1208.27L1178.61 1211.25H1178.68L1180.45 1208.27H1182.53L1179.87 1212.64L1182.59 1217H1180.47L1178.68 1214.02H1178.61L1176.82 1217H1174.71L1177.44 1212.64L1174.76 1208.27H1176.85ZM1183.37 1209.79V1208.27H1190.54V1209.79H1187.86V1217H1186.04V1209.79H1183.37Z" fill="black"/>
<line x1="953.979" y1="1139.5" x2="1375.02" y2="1139.5" stroke="white"/>
<path d="M953.979 1186.5H1375.02" stroke="white"/>
<line x1="954" y1="1232.5" x2="1375.04" y2="1232.5" stroke="white"/>
<path d="M954 1279.5H1375.04" stroke="white"/>
<rect x="975" y="1140" width="190" height="47" fill="#CF16B1"/>
<rect x="1115" y="1233" width="194" height="47" fill="#02C946"/>
<rect x="1121" y="1246" width="4" height="34" fill="#D9D9D9"/>
<rect x="1125" y="1254" width="4" height="26" fill="#D9D9D9"/>
<rect x="1129" y="1257" width="4" height="23" fill="#D9D9D9"/>
<rect width="4" height="34" transform="matrix(-1 0 0 1 1171 1246)" fill="#D9D9D9"/>
<rect width="5" height="26" transform="matrix(-1 0 0 1 1167 1254)" fill="#D9D9D9"/>
<rect width="4" height="23" transform="matrix(-1 0 0 1 1162 1257)" fill="#D9D9D9"/>
<rect x="1133" y="1254" width="4" height="26" fill="#D9D9D9"/>
<rect x="1137" y="1263" width="4" height="17" fill="#D9D9D9"/>
<rect x="1141" y="1267" width="5" height="13" fill="#D9D9D9"/>
<rect x="1146" y="1260" width="6" height="20" fill="#D9D9D9"/>
<rect width="6" height="23" transform="matrix(-1 0 0 1 1212 1257)" fill="#D9D9D9"/>
<rect x="1171" y="1254" width="6" height="26" fill="#D9D9D9"/>
<rect width="4" height="34" transform="matrix(-1 0 0 1 1225 1246)" fill="#D9D9D9"/>
<rect width="5" height="20" transform="matrix(-1 0 0 1 1221 1260)" fill="#D9D9D9"/>
<rect width="4" height="23" transform="matrix(-1 0 0 1 1216 1257)" fill="#D9D9D9"/>
<rect x="1225" y="1257" width="6" height="23" fill="#D9D9D9"/>
<rect x="1182" y="1267" width="7" height="13" fill="#D9D9D9"/>
<rect x="1189" y="1270" width="5" height="10" fill="#D9D9D9"/>
<rect x="1152" y="1273" width="6" height="7" fill="#D9D9D9"/>
<rect width="4" height="30" transform="matrix(-1 0 0 1 1256 1250)" fill="#D9D9D9"/>
<rect width="5" height="17" transform="matrix(-1 0 0 1 1252 1263)" fill="#D9D9D9"/>
<rect width="4" height="23" transform="matrix(-1 0 0 1 1247 1257)" fill="#D9D9D9"/>
<rect x="1231" y="1260" width="6" height="20" fill="#D9D9D9"/>
<rect width="4" height="30" transform="matrix(-1 0 0 1 1271 1250)" fill="#D9D9D9"/>
<rect width="5" height="20" transform="matrix(-1 0 0 1 1267 1260)" fill="#D9D9D9"/>
<rect x="1271" y="1257" width="6" height="23" fill="#D9D9D9"/>
<rect x="1277" y="1250" width="6" height="30" fill="#D9D9D9"/>
<rect width="4" height="42" transform="matrix(-1 0 0 1 1291 1238)" fill="#D9D9D9"/>
<rect width="5" height="15" transform="matrix(-1 0 0 1 1287 1265)" fill="#D9D9D9"/>
<rect x="1291" y="1246" width="6" height="34" fill="#D9D9D9"/>
<rect x="1297" y="1254" width="6" height="26" fill="#D9D9D9"/>
<rect x="1303" y="1257" width="6" height="23" fill="#D9D9D9"/>
<rect x="1256" y="1267" width="6" height="13" fill="#D9D9D9"/>
<rect x="1237" y="1273" width="6" height="7" fill="#D9D9D9"/>
<rect width="2" height="24" transform="matrix(-1 0 0 1 1121 1256)" fill="#D9D9D9"/>
<rect width="2" height="20" transform="matrix(-1 0 0 1 1119 1260)" fill="#D9D9D9"/>
<rect width="2" height="13" transform="matrix(-1 0 0 1 1117 1267)" fill="#D9D9D9"/>
<rect x="960" y="1085" width="2" height="26" fill="#959292"/>
<rect x="960" y="1085" width="2" height="26" fill="#959292"/>
<rect x="966" y="1094" width="2" height="17" fill="#959292"/>
<rect x="966" y="1094" width="2" height="17" fill="#959292"/>
<rect x="974" y="1094" width="2" height="17" fill="#959292"/>
<rect x="974" y="1094" width="2" height="17" fill="#959292"/>
<rect x="980" y="1094" width="2" height="17" fill="#959292"/>
<rect x="980" y="1094" width="2" height="17" fill="#959292"/>
<rect x="986" y="1094" width="2" height="17" fill="#959292"/>
<rect x="986" y="1094" width="2" height="17" fill="#959292"/>
<rect x="992" y="1094" width="2" height="17" fill="#959292"/>
<rect x="992" y="1094" width="2" height="17" fill="#959292"/>
<rect width="2" height="26" transform="matrix(-1 0 0 1 1038 1085)" fill="#959292"/>
<rect width="2" height="26" transform="matrix(-1 0 0 1 1038 1085)" fill="#959292"/>
<rect width="2" height="17" transform="matrix(-1 0 0 1 1032 1094)" fill="#959292"/>
<rect width="2" height="17" transform="matrix(-1 0 0 1 1032 1094)" fill="#959292"/>
<rect width="2" height="17" transform="matrix(-1 0 0 1 1024 1094)" fill="#959292"/>
<rect width="2" height="17" transform="matrix(-1 0 0 1 1024 1094)" fill="#959292"/>
<rect width="2" height="17" transform="matrix(-1 0 0 1 1018 1094)" fill="#959292"/>
<rect width="2" height="17" transform="matrix(-1 0 0 1 1018 1094)" fill="#959292"/>
<rect width="2" height="17" transform="matrix(-1 0 0 1 1012 1094)" fill="#959292"/>
<rect width="2" height="17" transform="matrix(-1 0 0 1 1012 1094)" fill="#959292"/>
<rect width="2" height="17" transform="matrix(-1 0 0 1 1006 1094)" fill="#959292"/>
<rect width="2" height="17" transform="matrix(-1 0 0 1 1006 1094)" fill="#959292"/>
<rect width="2" height="26" transform="matrix(-1 0 0 1 1078 1085)" fill="#959292"/>
<rect width="2" height="26" transform="matrix(-1 0 0 1 1078 1085)" fill="#959292"/>
<rect width="2" height="17" transform="matrix(-1 0 0 1 1072 1094)" fill="#959292"/>
<rect width="2" height="17" transform="matrix(-1 0 0 1 1072 1094)" fill="#959292"/>
<rect width="2" height="17" transform="matrix(-1 0 0 1 1064 1094)" fill="#959292"/>
<rect width="2" height="17" transform="matrix(-1 0 0 1 1064 1094)" fill="#959292"/>
<rect width="2" height="17" transform="matrix(-1 0 0 1 1058 1094)" fill="#959292"/>
<rect width="2" height="17" transform="matrix(-1 0 0 1 1058 1094)" fill="#959292"/>
<rect width="2" height="17" transform="matrix(-1 0 0 1 1052 1094)" fill="#959292"/>
<rect width="2" height="17" transform="matrix(-1 0 0 1 1052 1094)" fill="#959292"/>
<rect width="2" height="17" transform="matrix(-1 0 0 1 1046 1094)" fill="#959292"/>
<rect width="2" height="17" transform="matrix(-1 0 0 1 1046 1094)" fill="#959292"/>
<rect width="2" height="26" transform="matrix(-1 0 0 1 1116 1085)" fill="#959292"/>
<rect width="2" height="26" transform="matrix(-1 0 0 1 1116 1085)" fill="#959292"/>
<rect width="2" height="17" transform="matrix(-1 0 0 1 1110 1094)" fill="#959292"/>
<rect width="2" height="17" transform="matrix(-1 0 0 1 1110 1094)" fill="#959292"/>
<rect width="2" height="17" transform="matrix(-1 0 0 1 1102 1094)" fill="#959292"/>
<rect width="2" height="17" transform="matrix(-1 0 0 1 1102 1094)" fill="#959292"/>
<rect width="2" height="17" transform="matrix(-1 0 0 1 1096 1094)" fill="#959292"/>
<rect width="2" height="17" transform="matrix(-1 0 0 1 1096 1094)" fill="#959292"/>
<rect width="2" height="17" transform="matrix(-1 0 0 1 1090 1094)" fill="#959292"/>
<rect width="2" height="17" transform="matrix(-1 0 0 1 1090 1094)" fill="#959292"/>
<rect width="2" height="17" transform="matrix(-1 0 0 1 1084 1094)" fill="#959292"/>
<rect width="2" height="17" transform="matrix(-1 0 0 1 1084 1094)" fill="#959292"/>
<rect width="2" height="26" transform="matrix(-1 0 0 1 1155 1085)" fill="#959292"/>
<rect width="2" height="26" transform="matrix(-1 0 0 1 1155 1085)" fill="#959292"/>
<rect width="2" height="17" transform="matrix(-1 0 0 1 1149 1094)" fill="#959292"/>
<rect width="2" height="17" transform="matrix(-1 0 0 1 1149 1094)" fill="#959292"/>
<rect width="2" height="17" transform="matrix(-1 0 0 1 1141 1094)" fill="#959292"/>
<rect width="2" height="17" transform="matrix(-1 0 0 1 1141 1094)" fill="#959292"/>
<rect width="2" height="17" transform="matrix(-1 0 0 1 1135 1094)" fill="#959292"/>
<rect width="2" height="17" transform="matrix(-1 0 0 1 1135 1094)" fill="#959292"/>
<rect width="2" height="17" transform="matrix(-1 0 0 1 1129 1094)" fill="#959292"/>
<rect width="2" height="17" transform="matrix(-1 0 0 1 1129 1094)" fill="#959292"/>
<rect width="2" height="17" transform="matrix(-1 0 0 1 1123 1094)" fill="#959292"/>
<rect width="2" height="17" transform="matrix(-1 0 0 1 1123 1094)" fill="#959292"/>
<rect width="2" height="26" transform="matrix(-1 0 0 1 1193 1085)" fill="#959292"/>
<rect width="2" height="26" transform="matrix(-1 0 0 1 1193 1085)" fill="#959292"/>
<rect width="2" height="17" transform="matrix(-1 0 0 1 1187 1094)" fill="#959292"/>
<rect width="2" height="17" transform="matrix(-1 0 0 1 1187 1094)" fill="#959292"/>
<rect width="2" height="17" transform="matrix(-1 0 0 1 1179 1094)" fill="#959292"/>
<rect width="2" height="17" transform="matrix(-1 0 0 1 1179 1094)" fill="#959292"/>
<rect width="2" height="17" transform="matrix(-1 0 0 1 1173 1094)" fill="#959292"/>
<rect width="2" height="17" transform="matrix(-1 0 0 1 1173 1094)" fill="#959292"/>
<rect width="2" height="17" transform="matrix(-1 0 0 1 1167 1094)" fill="#959292"/>
<rect width="2" height="17" transform="matrix(-1 0 0 1 1167 1094)" fill="#959292"/>
<rect width="2" height="17" transform="matrix(-1 0 0 1 1161 1094)" fill="#959292"/>
<rect width="2" height="17" transform="matrix(-1 0 0 1 1161 1094)" fill="#959292"/>
<rect width="2" height="26" transform="matrix(-1 0 0 1 1231 1085)" fill="#959292"/>
<rect width="2" height="26" transform="matrix(-1 0 0 1 1231 1085)" fill="#959292"/>
<rect width="2" height="17" transform="matrix(-1 0 0 1 1225 1094)" fill="#959292"/>
<rect width="2" height="17" transform="matrix(-1 0 0 1 1225 1094)" fill="#959292"/>
<rect width="2" height="17" transform="matrix(-1 0 0 1 1217 1094)" fill="#959292"/>
<rect width="2" height="17" transform="matrix(-1 0 0 1 1217 1094)" fill="#959292"/>
<rect width="2" height="17" transform="matrix(-1 0 0 1 1211 1094)" fill="#959292"/>
<rect width="2" height="17" transform="matrix(-1 0 0 1 1211 1094)" fill="#959292"/>
<rect width="2" height="17" transform="matrix(-1 0 0 1 1205 1094)" fill="#959292"/>
<rect width="2" height="17" transform="matrix(-1 0 0 1 1205 1094)" fill="#959292"/>
<rect width="2" height="17" transform="matrix(-1 0 0 1 1199 1094)" fill="#959292"/>
<rect width="2" height="17" transform="matrix(-1 0 0 1 1199 1094)" fill="#959292"/>
<rect width="2" height="26" transform="matrix(-1 0 0 1 1269 1085)" fill="#959292"/>
<rect width="2" height="26" transform="matrix(-1 0 0 1 1269 1085)" fill="#959292"/>
<rect width="2" height="17" transform="matrix(-1 0 0 1 1263 1094)" fill="#959292"/>
<rect width="2" height="17" transform="matrix(-1 0 0 1 1263 1094)" fill="#959292"/>
<rect width="2" height="17" transform="matrix(-1 0 0 1 1255 1094)" fill="#959292"/>
<rect width="2" height="17" transform="matrix(-1 0 0 1 1255 1094)" fill="#959292"/>
<rect width="2" height="17" transform="matrix(-1 0 0 1 1249 1094)" fill="#959292"/>
<rect width="2" height="17" transform="matrix(-1 0 0 1 1249 1094)" fill="#959292"/>
<rect width="2" height="17" transform="matrix(-1 0 0 1 1243 1094)" fill="#959292"/>
<rect width="2" height="17" transform="matrix(-1 0 0 1 1243 1094)" fill="#959292"/>
<rect width="2" height="17" transform="matrix(-1 0 0 1 1237 1094)" fill="#959292"/>
<rect width="2" height="17" transform="matrix(-1 0 0 1 1237 1094)" fill="#959292"/>
<rect width="2" height="26" transform="matrix(-1 0 0 1 1307 1085)" fill="#959292"/>
<rect width="2" height="26" transform="matrix(-1 0 0 1 1307 1085)" fill="#959292"/>
<rect width="2" height="17" transform="matrix(-1 0 0 1 1301 1094)" fill="#959292"/>
<rect width="2" height="17" transform="matrix(-1 0 0 1 1301 1094)" fill="#959292"/>
<rect width="2" height="17" transform="matrix(-1 0 0 1 1293 1094)" fill="#959292"/>
<rect width="2" height="17" transform="matrix(-1 0 0 1 1293 1094)" fill="#959292"/>
<rect width="2" height="17" transform="matrix(-1 0 0 1 1287 1094)" fill="#959292"/>
<rect width="2" height="17" transform="matrix(-1 0 0 1 1287 1094)" fill="#959292"/>
<rect width="2" height="17" transform="matrix(-1 0 0 1 1281 1094)" fill="#959292"/>
<rect width="2" height="17" transform="matrix(-1 0 0 1 1281 1094)" fill="#959292"/>
<rect width="2" height="17" transform="matrix(-1 0 0 1 1275 1094)" fill="#959292"/>
<rect width="2" height="17" transform="matrix(-1 0 0 1 1275 1094)" fill="#959292"/>
<rect width="2" height="26" transform="matrix(-1 0 0 1 1345 1085)" fill="#959292"/>
<rect width="2" height="26" transform="matrix(-1 0 0 1 1345 1085)" fill="#959292"/>
<rect width="2" height="17" transform="matrix(-1 0 0 1 1339 1094)" fill="#959292"/>
<rect width="2" height="17" transform="matrix(-1 0 0 1 1339 1094)" fill="#959292"/>
<rect width="2" height="17" transform="matrix(-1 0 0 1 1331 1094)" fill="#959292"/>
<rect width="2" height="17" transform="matrix(-1 0 0 1 1331 1094)" fill="#959292"/>
<rect width="2" height="17" transform="matrix(-1 0 0 1 1325 1094)" fill="#959292"/>
<rect width="2" height="17" transform="matrix(-1 0 0 1 1325 1094)" fill="#959292"/>
<rect width="2" height="17" transform="matrix(-1 0 0 1 1319 1094)" fill="#959292"/>
<rect width="2" height="17" transform="matrix(-1 0 0 1 1319 1094)" fill="#959292"/>
<rect width="2" height="17" transform="matrix(-1 0 0 1 1313 1094)" fill="#959292"/>
<rect width="2" height="17" transform="matrix(-1 0 0 1 1313 1094)" fill="#959292"/>
<rect width="2" height="17" transform="matrix(-1 0 0 1 1369 1094)" fill="#959292"/>
<rect width="2" height="17" transform="matrix(-1 0 0 1 1369 1094)" fill="#959292"/>
<rect width="2" height="17" transform="matrix(-1 0 0 1 1363 1094)" fill="#959292"/>
<rect width="2" height="17" transform="matrix(-1 0 0 1 1363 1094)" fill="#959292"/>
<rect width="2" height="17" transform="matrix(-1 0 0 1 1357 1094)" fill="#959292"/>
<rect width="2" height="17" transform="matrix(-1 0 0 1 1357 1094)" fill="#959292"/>
<rect width="2" height="17" transform="matrix(-1 0 0 1 1351 1094)" fill="#959292"/>
<rect width="2" height="17" transform="matrix(-1 0 0 1 1351 1094)" fill="#959292"/>
<rect x="998" y="1085" width="2" height="26" fill="#959292"/>
<rect x="998" y="1085" width="2" height="26" fill="#959292"/>
<path fill-rule="evenodd" clip-rule="evenodd" d="M1171 1090H1184.98V1103.88H1185L1184.98 1103.9V1104.53H1184.42L1178.02 1111.65L1178 1111.63V1320H1177V1110.51L1171.62 1104.53H1171V1090Z" fill="#1856B3"/>
<rect x="976" y="1164" width="94" height="23" fill="#D9D9D9"/>
<rect x="829" y="1140" width="47" height="44" fill="#367FEE" fill-opacity="0.77"/>
<rect x="829" y="1232" width="47" height="44" fill="#367FEE" fill-opacity="0.77"/>
<rect x="885" y="1184" width="47" height="44" fill="#367FEE" fill-opacity="0.77"/>
<rect x="885" y="1277" width="47" height="44" fill="#367FEE" fill-opacity="0.77"/>
<path d="M765.75 1177.75C764.856 1177.75 764.091 1177.43 763.455 1176.8C762.82 1176.16 762.501 1175.39 762.5 1174.5V1158.25C762.5 1157.36 762.818 1156.59 763.455 1155.96C764.092 1155.32 764.857 1155 765.75 1155H767.375V1151.75C767.375 1149.5 768.167 1147.59 769.752 1146C771.337 1144.42 773.253 1143.63 775.5 1143.62C777.748 1143.62 779.664 1144.42 781.249 1146C782.834 1147.59 783.626 1149.5 783.625 1151.75V1155H785.25C786.144 1155 786.909 1155.32 787.546 1155.96C788.183 1156.59 788.501 1157.36 788.5 1158.25V1174.5C788.5 1175.39 788.182 1176.16 787.546 1176.8C786.91 1177.43 786.145 1177.75 785.25 1177.75H765.75ZM765.75 1174.5H785.25V1158.25H765.75V1174.5ZM775.5 1169.62C776.394 1169.62 777.159 1169.31 777.796 1168.67C778.433 1168.04 778.751 1167.27 778.75 1166.38C778.75 1165.48 778.432 1164.72 777.796 1164.08C777.16 1163.44 776.395 1163.13 775.5 1163.12C774.606 1163.12 773.841 1163.44 773.206 1164.08C772.57 1164.72 772.251 1165.48 772.25 1166.38C772.25 1167.27 772.569 1168.03 773.206 1168.67C773.843 1169.31 774.607 1169.63 775.5 1169.62ZM770.625 1155H780.375V1151.75C780.375 1150.4 779.901 1149.24 778.953 1148.3C778.005 1147.35 776.854 1146.88 775.5 1146.88C774.146 1146.88 772.995 1147.35 772.047 1148.3C771.099 1149.24 770.625 1150.4 770.625 1151.75V1155Z" fill="black"/>
<path d="M766.75 1267.75C765.856 1267.75 765.091 1267.43 764.455 1266.8C763.82 1266.16 763.501 1265.39 763.5 1264.5V1248.25C763.5 1247.36 763.818 1246.59 764.455 1245.96C765.092 1245.32 765.857 1245 766.75 1245H768.375V1241.75C768.375 1239.5 769.167 1237.59 770.752 1236C772.337 1234.42 774.253 1233.63 776.5 1233.62C778.748 1233.62 780.664 1234.42 782.249 1236C783.834 1237.59 784.626 1239.5 784.625 1241.75V1245H786.25C787.144 1245 787.909 1245.32 788.546 1245.96C789.183 1246.59 789.501 1247.36 789.5 1248.25V1264.5C789.5 1265.39 789.182 1266.16 788.546 1266.8C787.91 1267.43 787.145 1267.75 786.25 1267.75H766.75ZM766.75 1264.5H786.25V1248.25H766.75V1264.5ZM776.5 1259.62C777.394 1259.62 778.159 1259.31 778.796 1258.67C779.433 1258.04 779.751 1257.27 779.75 1256.38C779.75 1255.48 779.432 1254.72 778.796 1254.08C778.16 1253.44 777.395 1253.13 776.5 1253.12C775.606 1253.12 774.841 1253.44 774.206 1254.08C773.57 1254.72 773.251 1255.48 773.25 1256.38C773.25 1257.27 773.569 1258.03 774.206 1258.67C774.843 1259.31 775.607 1259.63 776.5 1259.62ZM771.625 1245H781.375V1241.75C781.375 1240.4 780.901 1239.24 779.953 1238.3C779.005 1237.35 777.854 1236.88 776.5 1236.88C775.146 1236.88 773.995 1237.35 773.047 1238.3C772.099 1239.24 771.625 1240.4 771.625 1241.75V1245Z" fill="black"/>
<path d="M767.75 1221.75C766.856 1221.75 766.091 1221.43 765.455 1220.8C764.82 1220.16 764.501 1219.39 764.5 1218.5V1202.25C764.5 1201.36 764.818 1200.59 765.455 1199.96C766.092 1199.32 766.857 1199 767.75 1199H769.375V1195.75C769.375 1193.5 770.167 1191.59 771.752 1190C773.337 1188.42 775.253 1187.63 777.5 1187.62C779.748 1187.62 781.664 1188.42 783.249 1190C784.834 1191.59 785.626 1193.5 785.625 1195.75V1199H787.25C788.144 1199 788.909 1199.32 789.546 1199.96C790.183 1200.59 790.501 1201.36 790.5 1202.25V1218.5C790.5 1219.39 790.182 1220.16 789.546 1220.8C788.91 1221.43 788.145 1221.75 787.25 1221.75H767.75ZM767.75 1218.5H787.25V1202.25H767.75V1218.5ZM777.5 1213.62C778.394 1213.62 779.159 1213.31 779.796 1212.67C780.433 1212.04 780.751 1211.27 780.75 1210.38C780.75 1209.48 780.432 1208.72 779.796 1208.08C779.16 1207.44 778.395 1207.13 777.5 1207.12C776.606 1207.12 775.841 1207.44 775.206 1208.08C774.57 1208.72 774.251 1209.48 774.25 1210.38C774.25 1211.27 774.569 1212.03 775.206 1212.67C775.843 1213.31 776.607 1213.63 777.5 1213.62ZM772.625 1199H782.375V1195.75C782.375 1194.4 781.901 1193.24 780.953 1192.3C780.005 1191.35 778.854 1190.88 777.5 1190.88C776.146 1190.88 774.995 1191.35 774.047 1192.3C773.099 1193.24 772.625 1194.4 772.625 1195.75V1199Z" fill="black"/>
<path d="M766.75 1315.75C765.856 1315.75 765.091 1315.43 764.455 1314.8C763.82 1314.16 763.501 1313.39 763.5 1312.5V1296.25C763.5 1295.36 763.818 1294.59 764.455 1293.96C765.092 1293.32 765.857 1293 766.75 1293H768.375V1289.75C768.375 1287.5 769.167 1285.59 770.752 1284C772.337 1282.42 774.253 1281.63 776.5 1281.62C778.748 1281.62 780.664 1282.42 782.249 1284C783.834 1285.59 784.626 1287.5 784.625 1289.75V1293H786.25C787.144 1293 787.909 1293.32 788.546 1293.96C789.183 1294.59 789.501 1295.36 789.5 1296.25V1312.5C789.5 1313.39 789.182 1314.16 788.546 1314.8C787.91 1315.43 787.145 1315.75 786.25 1315.75H766.75ZM766.75 1312.5H786.25V1296.25H766.75V1312.5ZM776.5 1307.62C777.394 1307.62 778.159 1307.31 778.796 1306.67C779.433 1306.04 779.751 1305.27 779.75 1304.38C779.75 1303.48 779.432 1302.72 778.796 1302.08C778.16 1301.44 777.395 1301.13 776.5 1301.12C775.606 1301.12 774.841 1301.44 774.206 1302.08C773.57 1302.72 773.251 1303.48 773.25 1304.38C773.25 1305.27 773.569 1306.03 774.206 1306.67C774.843 1307.31 775.607 1307.63 776.5 1307.62ZM771.625 1293H781.375V1289.75C781.375 1288.4 780.901 1287.24 779.953 1286.3C779.005 1285.35 777.854 1284.88 776.5 1284.88C775.146 1284.88 773.995 1285.35 773.047 1286.3C772.099 1287.24 771.625 1288.4 771.625 1289.75V1293Z" fill="black"/>
<path d="M770.259 1065.38C768.793 1065.38 767.531 1065.02 766.474 1064.3C765.423 1063.59 764.614 1062.55 764.045 1061.19C763.483 1059.83 763.205 1058.2 763.21 1056.29C763.21 1054.39 763.491 1052.76 764.054 1051.42C764.622 1050.08 765.432 1049.06 766.483 1048.36C767.54 1047.66 768.798 1047.31 770.259 1047.31C771.719 1047.31 772.974 1047.66 774.026 1048.36C775.082 1049.07 775.895 1050.09 776.463 1051.43C777.031 1052.77 777.313 1054.39 777.307 1056.29C777.307 1058.2 777.023 1059.84 776.455 1061.2C775.892 1062.56 775.085 1063.59 774.034 1064.31C772.983 1065.03 771.724 1065.38 770.259 1065.38ZM770.259 1062.32C771.259 1062.32 772.057 1061.82 772.653 1060.82C773.25 1059.81 773.545 1058.3 773.54 1056.29C773.54 1054.97 773.403 1053.86 773.131 1052.98C772.864 1052.1 772.483 1051.44 771.989 1051C771.5 1050.55 770.923 1050.33 770.259 1050.33C769.264 1050.33 768.469 1050.83 767.872 1051.82C767.276 1052.82 766.974 1054.31 766.969 1056.29C766.969 1057.63 767.102 1058.75 767.369 1059.65C767.642 1060.54 768.026 1061.21 768.52 1061.66C769.014 1062.1 769.594 1062.32 770.259 1062.32ZM786.782 1065.38C785.316 1065.38 784.055 1065.02 782.998 1064.3C781.947 1063.59 781.137 1062.55 780.569 1061.19C780.006 1059.83 779.728 1058.2 779.734 1056.29C779.734 1054.39 780.015 1052.76 780.577 1051.42C781.146 1050.08 781.955 1049.06 783.006 1048.36C784.063 1047.66 785.322 1047.31 786.782 1047.31C788.242 1047.31 789.498 1047.66 790.549 1048.36C791.606 1049.07 792.418 1050.09 792.987 1051.43C793.555 1052.77 793.836 1054.39 793.83 1056.29C793.83 1058.2 793.546 1059.84 792.978 1061.2C792.415 1062.56 791.609 1063.59 790.558 1064.31C789.506 1065.03 788.248 1065.38 786.782 1065.38ZM786.782 1062.32C787.782 1062.32 788.58 1061.82 789.177 1060.82C789.773 1059.81 790.069 1058.3 790.063 1056.29C790.063 1054.97 789.927 1053.86 789.654 1052.98C789.387 1052.1 789.006 1051.44 788.512 1051C788.023 1050.55 787.447 1050.33 786.782 1050.33C785.788 1050.33 784.992 1050.83 784.396 1051.82C783.799 1052.82 783.498 1054.31 783.492 1056.29C783.492 1057.63 783.626 1058.75 783.893 1059.65C784.165 1060.54 784.549 1061.21 785.043 1061.66C785.538 1062.1 786.117 1062.32 786.782 1062.32ZM798.618 1062.97C798.055 1062.97 797.572 1062.77 797.169 1062.38C796.771 1061.98 796.572 1061.49 796.572 1060.93C796.572 1060.37 796.771 1059.89 797.169 1059.49C797.572 1059.1 798.055 1058.9 798.618 1058.9C799.163 1058.9 799.641 1059.1 800.05 1059.49C800.459 1059.89 800.663 1060.37 800.663 1060.93C800.663 1061.3 800.567 1061.64 800.374 1061.96C800.186 1062.26 799.939 1062.51 799.632 1062.7C799.325 1062.88 798.987 1062.97 798.618 1062.97ZM798.618 1054.41C798.055 1054.41 797.572 1054.21 797.169 1053.81C796.771 1053.41 796.572 1052.93 796.572 1052.36C796.572 1051.8 796.771 1051.33 797.169 1050.94C797.572 1050.54 798.055 1050.34 798.618 1050.34C799.163 1050.34 799.641 1050.54 800.05 1050.94C800.459 1051.33 800.663 1051.8 800.663 1052.36C800.663 1052.74 800.567 1053.09 800.374 1053.4C800.186 1053.71 799.939 1053.95 799.632 1054.13C799.325 1054.32 798.987 1054.41 798.618 1054.41ZM810.454 1065.38C808.988 1065.38 807.727 1065.02 806.67 1064.3C805.619 1063.59 804.809 1062.55 804.241 1061.19C803.678 1059.83 803.4 1058.2 803.406 1056.29C803.406 1054.39 803.687 1052.76 804.249 1051.42C804.817 1050.08 805.627 1049.06 806.678 1048.36C807.735 1047.66 808.994 1047.31 810.454 1047.31C811.914 1047.31 813.17 1047.66 814.221 1048.36C815.278 1049.07 816.09 1050.09 816.658 1051.43C817.227 1052.77 817.508 1054.39 817.502 1056.29C817.502 1058.2 817.218 1059.84 816.65 1061.2C816.087 1062.56 815.281 1063.59 814.229 1064.31C813.178 1065.03 811.92 1065.38 810.454 1065.38ZM810.454 1062.32C811.454 1062.32 812.252 1061.82 812.849 1060.82C813.445 1059.81 813.741 1058.3 813.735 1056.29C813.735 1054.97 813.599 1053.86 813.326 1052.98C813.059 1052.1 812.678 1051.44 812.184 1051C811.695 1050.55 811.119 1050.33 810.454 1050.33C809.46 1050.33 808.664 1050.83 808.067 1051.82C807.471 1052.82 807.17 1054.31 807.164 1056.29C807.164 1057.63 807.298 1058.75 807.565 1059.65C807.837 1060.54 808.221 1061.21 808.715 1061.66C809.21 1062.1 809.789 1062.32 810.454 1062.32ZM826.977 1065.38C825.511 1065.38 824.25 1065.02 823.193 1064.3C822.142 1063.59 821.332 1062.55 820.764 1061.19C820.202 1059.83 819.923 1058.2 819.929 1056.29C819.929 1054.39 820.21 1052.76 820.773 1051.42C821.341 1050.08 822.151 1049.06 823.202 1048.36C824.259 1047.66 825.517 1047.31 826.977 1047.31C828.438 1047.31 829.693 1047.66 830.744 1048.36C831.801 1049.07 832.614 1050.09 833.182 1051.43C833.75 1052.77 834.031 1054.39 834.026 1056.29C834.026 1058.2 833.741 1059.84 833.173 1061.2C832.611 1062.56 831.804 1063.59 830.753 1064.31C829.702 1065.03 828.443 1065.38 826.977 1065.38ZM826.977 1062.32C827.977 1062.32 828.776 1061.82 829.372 1060.82C829.969 1059.81 830.264 1058.3 830.259 1056.29C830.259 1054.97 830.122 1053.86 829.849 1052.98C829.582 1052.1 829.202 1051.44 828.707 1051C828.219 1050.55 827.642 1050.33 826.977 1050.33C825.983 1050.33 825.188 1050.83 824.591 1051.82C823.994 1052.82 823.693 1054.31 823.688 1056.29C823.688 1057.63 823.821 1058.75 824.088 1059.65C824.361 1060.54 824.744 1061.21 825.239 1061.66C825.733 1062.1 826.312 1062.32 826.977 1062.32ZM838.813 1062.97C838.251 1062.97 837.768 1062.77 837.364 1062.38C836.967 1061.98 836.768 1061.49 836.768 1060.93C836.768 1060.37 836.967 1059.89 837.364 1059.49C837.768 1059.1 838.251 1058.9 838.813 1058.9C839.359 1058.9 839.836 1059.1 840.245 1059.49C840.654 1059.89 840.859 1060.37 840.859 1060.93C840.859 1061.3 840.762 1061.64 840.569 1061.96C840.381 1062.26 840.134 1062.51 839.827 1062.7C839.521 1062.88 839.183 1062.97 838.813 1062.97ZM838.813 1054.41C838.251 1054.41 837.768 1054.21 837.364 1053.81C836.967 1053.41 836.768 1052.93 836.768 1052.36C836.768 1051.8 836.967 1051.33 837.364 1050.94C837.768 1050.54 838.251 1050.34 838.813 1050.34C839.359 1050.34 839.836 1050.54 840.245 1050.94C840.654 1051.33 840.859 1051.8 840.859 1052.36C840.859 1052.74 840.762 1053.09 840.569 1053.4C840.381 1053.71 840.134 1053.95 839.827 1054.13C839.521 1054.32 839.183 1054.41 838.813 1054.41ZM850.18 1065.24C848.976 1065.24 847.902 1065.02 846.959 1064.57C846.021 1064.13 845.277 1063.52 844.726 1062.74C844.175 1061.96 843.888 1061.07 843.865 1060.07H847.445C847.484 1060.74 847.768 1061.29 848.297 1061.71C848.825 1062.13 849.453 1062.34 850.18 1062.34C850.76 1062.34 851.271 1062.21 851.714 1061.96C852.163 1061.7 852.513 1061.34 852.763 1060.88C853.018 1060.41 853.146 1059.87 853.146 1059.27C853.146 1058.66 853.016 1058.12 852.754 1057.65C852.499 1057.19 852.143 1056.82 851.689 1056.56C851.234 1056.3 850.714 1056.17 850.129 1056.16C849.618 1056.16 849.121 1056.27 848.638 1056.48C848.161 1056.69 847.788 1056.97 847.521 1057.34L844.24 1056.75L845.067 1047.55H855.737V1050.56H848.109L847.658 1054.93H847.76C848.067 1054.5 848.53 1054.14 849.149 1053.86C849.768 1053.58 850.462 1053.43 851.229 1053.43C852.28 1053.43 853.217 1053.68 854.041 1054.18C854.865 1054.67 855.516 1055.35 855.993 1056.21C856.47 1057.07 856.706 1058.06 856.7 1059.18C856.706 1060.36 856.433 1061.4 855.882 1062.32C855.337 1063.22 854.572 1063.94 853.589 1064.46C852.612 1064.98 851.476 1065.24 850.18 1065.24ZM859.964 1065L867.2 1050.68V1050.56H858.771V1047.55H871.018V1050.61L863.774 1065H859.964ZM874.884 1062.97C874.321 1062.97 873.838 1062.77 873.435 1062.38C873.037 1061.98 872.838 1061.49 872.838 1060.93C872.838 1060.37 873.037 1059.89 873.435 1059.49C873.838 1059.1 874.321 1058.9 874.884 1058.9C875.429 1058.9 875.906 1059.1 876.315 1059.49C876.724 1059.89 876.929 1060.37 876.929 1060.93C876.929 1061.3 876.832 1061.64 876.639 1061.96C876.452 1062.26 876.205 1062.51 875.898 1062.7C875.591 1062.88 875.253 1062.97 874.884 1062.97ZM874.884 1054.41C874.321 1054.41 873.838 1054.21 873.435 1053.81C873.037 1053.41 872.838 1052.93 872.838 1052.36C872.838 1051.8 873.037 1051.33 873.435 1050.94C873.838 1050.54 874.321 1050.34 874.884 1050.34C875.429 1050.34 875.906 1050.54 876.315 1050.94C876.724 1051.33 876.929 1051.8 876.929 1052.36C876.929 1052.74 876.832 1053.09 876.639 1053.4C876.452 1053.71 876.205 1053.95 875.898 1054.13C875.591 1054.32 875.253 1054.41 874.884 1054.41ZM886.719 1065.38C885.254 1065.38 883.992 1065.02 882.935 1064.3C881.884 1063.59 881.075 1062.55 880.506 1061.19C879.944 1059.83 879.665 1058.2 879.671 1056.29C879.671 1054.39 879.952 1052.76 880.515 1051.42C881.083 1050.08 881.893 1049.06 882.944 1048.36C884.001 1047.66 885.259 1047.31 886.719 1047.31C888.18 1047.31 889.435 1047.66 890.487 1048.36C891.543 1049.07 892.356 1050.09 892.924 1051.43C893.492 1052.77 893.773 1054.39 893.768 1056.29C893.768 1058.2 893.484 1059.84 892.915 1061.2C892.353 1062.56 891.546 1063.59 890.495 1064.31C889.444 1065.03 888.185 1065.38 886.719 1065.38ZM886.719 1062.32C887.719 1062.32 888.518 1061.82 889.114 1060.82C889.711 1059.81 890.006 1058.3 890.001 1056.29C890.001 1054.97 889.864 1053.86 889.592 1052.98C889.325 1052.1 888.944 1051.44 888.45 1051C887.961 1050.55 887.384 1050.33 886.719 1050.33C885.725 1050.33 884.93 1050.83 884.333 1051.82C883.737 1052.82 883.435 1054.31 883.43 1056.29C883.43 1057.63 883.563 1058.75 883.83 1059.65C884.103 1060.54 884.487 1061.21 884.981 1061.66C885.475 1062.1 886.055 1062.32 886.719 1062.32ZM902.911 1065.24C901.598 1065.24 900.43 1065.03 899.408 1064.6C898.391 1064.17 897.592 1063.58 897.013 1062.84C896.433 1062.09 896.143 1061.25 896.143 1060.3C896.143 1059.58 896.308 1058.91 896.638 1058.3C896.973 1057.69 897.428 1057.18 898.001 1056.78C898.575 1056.37 899.217 1056.11 899.928 1055.99V1055.87C898.996 1055.68 898.24 1055.23 897.661 1054.52C897.081 1053.8 896.791 1052.96 896.791 1052C896.791 1051.1 897.055 1050.3 897.584 1049.59C898.112 1048.88 898.837 1048.32 899.757 1047.92C900.683 1047.51 901.734 1047.31 902.911 1047.31C904.087 1047.31 905.135 1047.51 906.055 1047.92C906.982 1048.33 907.709 1048.89 908.237 1049.6C908.766 1050.3 909.033 1051.11 909.038 1052C909.033 1052.96 908.737 1053.8 908.152 1054.52C907.567 1055.23 906.817 1055.68 905.902 1055.87V1055.99C906.601 1056.11 907.234 1056.37 907.803 1056.78C908.376 1057.18 908.831 1057.69 909.166 1058.3C909.507 1058.91 909.68 1059.58 909.686 1060.3C909.68 1061.25 909.388 1062.09 908.808 1062.84C908.229 1063.58 907.428 1064.17 906.405 1064.6C905.388 1065.03 904.223 1065.24 902.911 1065.24ZM902.911 1062.53C903.496 1062.53 904.007 1062.42 904.445 1062.21C904.882 1062 905.223 1061.7 905.467 1061.33C905.717 1060.95 905.842 1060.51 905.842 1060.01C905.842 1059.51 905.714 1059.06 905.459 1058.68C905.203 1058.28 904.857 1057.98 904.419 1057.76C903.982 1057.53 903.479 1057.41 902.911 1057.41C902.348 1057.41 901.845 1057.53 901.402 1057.76C900.959 1057.98 900.609 1058.28 900.354 1058.68C900.104 1059.06 899.979 1059.51 899.979 1060.01C899.979 1060.51 900.101 1060.95 900.345 1061.33C900.589 1061.7 900.933 1062 901.376 1062.21C901.82 1062.42 902.331 1062.53 902.911 1062.53ZM902.911 1054.73C903.399 1054.73 903.834 1054.63 904.214 1054.43C904.595 1054.23 904.893 1053.96 905.109 1053.61C905.325 1053.25 905.433 1052.85 905.433 1052.39C905.433 1051.93 905.325 1051.53 905.109 1051.19C904.893 1050.85 904.598 1050.58 904.223 1050.38C903.848 1050.18 903.411 1050.09 902.911 1050.09C902.416 1050.09 901.979 1050.18 901.598 1050.38C901.217 1050.58 900.919 1050.85 900.703 1051.19C900.493 1051.53 900.388 1051.93 900.388 1052.39C900.388 1052.85 900.496 1053.25 900.712 1053.61C900.928 1053.96 901.226 1054.23 901.607 1054.43C901.987 1054.63 902.422 1054.73 902.911 1054.73Z" fill="white"/>
<rect x="833" y="1084" width="3.33333" height="15.2941" fill="white"/>
<rect x="839.667" y="1084" width="3.33333" height="15.2941" fill="white"/>
<rect x="793.292" y="1085.56" width="2.70796" height="13.5372" fill="white"/>
<path d="M778 1092L789.25 1085.07V1098.93L778 1092Z" fill="white"/>
<rect x="879.708" y="1098.43" width="2.70796" height="13.5372" transform="rotate(-179.505 879.708 1098.43)" fill="white"/>
<path d="M895.055 1092.13L883.745 1098.96L883.865 1085.1L895.055 1092.13Z" fill="white"/>
</g>
<rect x="506" y="574" width="448.151" height="281" fill="#707070"/>
<rect x="529.287" y="610.742" width="390.191" height="219.936" fill="white"/>
<circle cx="724.124" cy="720.71" r="61.8407" fill="#707070"/>
<path d="M711.29 743.221L711.29 698.405L750.102 720.813L711.29 743.221Z" fill="#D9D9D9"/>
<defs>
<filter id="filter0_d_9_2" x="98" y="124" width="652" height="335.431" filterUnits="userSpaceOnUse" color-interpolation-filters="sRGB">
<feFlood flood-opacity="0" result="BackgroundImageFix"/>
<feColorMatrix in="SourceAlpha" type="matrix" values="0 0 0 0 0 0 0 0 0 0 0 0 0 0 0 0 0 0 127 0" result="hardAlpha"/>
<feOffset dx="9" dy="9"/>
<feGaussianBlur stdDeviation="2"/>
<feComposite in2="hardAlpha" operator="out"/>
<feColorMatrix type="matrix" values="0 0 0 0 0 0 0 0 0 0 0 0 0 0 0 0 0 0 0.25 0"/>
<feBlend mode="normal" in2="BackgroundImageFix" result="effect1_dropShadow_9_2"/>
<feBlend mode="normal" in="SourceGraphic" in2="effect1_dropShadow_9_2" result="shape"/>
</filter>
<filter id="filter1_d_9_2" x="1049" y="172" width="407.086" height="504" filterUnits="userSpaceOnUse" color-interpolation-filters="sRGB">
<feFlood flood-opacity="0" result="BackgroundImageFix"/>
<feColorMatrix in="SourceAlpha" type="matrix" values="0 0 0 0 0 0 0 0 0 0 0 0 0 0 0 0 0 0 127 0" result="hardAlpha"/>
<feOffset dx="-11" dy="13"/>
<feGaussianBlur stdDeviation="2"/>
<feComposite in2="hardAlpha" operator="out"/>
<feColorMatrix type="matrix" values="0 0 0 0 0 0 0 0 0 0 0 0 0 0 0 0 0 0 0.25 0"/>
<feBlend mode="normal" in2="BackgroundImageFix" result="effect1_dropShadow_9_2"/>
<feBlend mode="normal" in="SourceGraphic" in2="effect1_dropShadow_9_2" result="shape"/>
</filter>
<filter id="filter2_d_9_2" x="33" y="683" width="361.448" height="456.913" filterUnits="userSpaceOnUse" color-interpolation-filters="sRGB">
<feFlood flood-opacity="0" result="BackgroundImageFix"/>
<feColorMatrix in="SourceAlpha" type="matrix" values="0 0 0 0 0 0 0 0 0 0 0 0 0 0 0 0 0 0 127 0" result="hardAlpha"/>
<feOffset dx="7" dy="-6"/>
<feGaussianBlur stdDeviation="2"/>
<feComposite in2="hardAlpha" operator="out"/>
<feColorMatrix type="matrix" values="0 0 0 0 0 0 0 0 0 0 0 0 0 0 0 0 0 0 0.25 0"/>
<feBlend mode="normal" in2="BackgroundImageFix" result="effect1_dropShadow_9_2"/>
<feBlend mode="normal" in="SourceGraphic" in2="effect1_dropShadow_9_2" result="shape"/>
</filter>
<filter id="filter3_d_9_2" x="717" y="968" width="715" height="411" filterUnits="userSpaceOnUse" color-interpolation-filters="sRGB">
<feFlood flood-opacity="0" result="BackgroundImageFix"/>
<feColorMatrix in="SourceAlpha" type="matrix" values="0 0 0 0 0 0 0 0 0 0 0 0 0 0 0 0 0 0 127 0" result="hardAlpha"/>
<feOffset dx="-9" dy="-11"/>
<feGaussianBlur stdDeviation="2"/>
<feComposite in2="hardAlpha" operator="out"/>
<feColorMatrix type="matrix" values="0 0 0 0 0 0 0 0 0 0 0 0 0 0 0 0 0 0 0.25 0"/>
<feBlend mode="normal" in2="BackgroundImageFix" result="effect1_dropShadow_9_2"/>
<feBlend mode="normal" in="SourceGraphic" in2="effect1_dropShadow_9_2" result="shape"/>
</filter>
<radialGradient id="paint0_angular_9_2" cx="0" cy="0" r="1" gradientUnits="userSpaceOnUse" gradientTransform="translate(1260.61 366.348) rotate(90) scale(133.332)">
<stop stop-color="#FA0A0A" stop-opacity="0.75"/>
<stop offset="0.226667" stop-color="#A1FF06"/>
<stop offset="0.455" stop-color="#23FD00" stop-opacity="0.535"/>
<stop offset="0.625" stop-color="#00B3FF" stop-opacity="0.368119"/>
<stop offset="0.79" stop-color="#FA00FF" stop-opacity="0.206147"/>
<stop offset="1" stop-color="#FF0000" stop-opacity="0"/>
</radialGradient>
</defs>
</svg>
